<?xml version="1.0" encoding="UTF-8"?>
<svg id="Layer_1" data-name="Layer 1" xmlns="http://www.w3.org/2000/svg" viewBox="0 0 351.82 317.96">
  <path d="m99.14,317.96c-54.45.13-93.9-35.37-98.61-82.48-2.82-28.2,5.6-52.99,25.46-73.1C70.96,116.83,116.4,71.74,161.67,26.49c5.49-5.49,12.67-5.71,17.65-.76,4.96,4.94,4.63,12.37-.94,17.94-45.16,45.18-90.47,90.22-135.48,135.56-18.7,18.83-24.66,41.76-17.28,67.14,7.3,25.11,24.52,41.14,50.02,47.05,23.55,5.46,44.92-.38,62.07-17.38,59.02-58.5,117.7-117.34,176.34-176.22,13.29-13.35,16.87-29.61,10.06-47.2-6.77-17.46-20.33-26.79-38.96-27.93-13.14-.8-24.34,4.2-33.65,13.51-43.83,43.87-87.67,87.72-131.51,131.58-2.65,2.65-5.33,5.26-7.93,7.95-8.19,8.44-8.42,20.51-.57,28.52,7.95,8.12,20.28,8.14,28.78-.29,20.46-20.3,40.79-40.73,61.17-61.11,9.62-9.62,19.19-19.28,28.87-28.83,3.85-3.79,9.3-4.58,13.81-2.33,4.32,2.15,7.33,6.88,6.46,11.63-.51,2.78-1.82,5.88-3.77,7.84-30.14,30.38-60.28,60.77-90.78,90.79-17.24,16.97-44.88,16.25-61.67-.87-16.82-17.15-16.91-44.51.22-61.69,47.22-47.36,94.36-94.8,142.01-141.72C255.91.67,279.67-4.59,305.38,4c25.6,8.55,40.92,27.1,45.41,53.63,3.7,21.88-2.66,41.35-18,57.42-13.01,13.62-26.56,26.72-39.89,40.04-45.01,44.99-90.04,89.94-135.01,134.96-18.26,18.29-40.21,27.66-58.75,27.91Z" style="stroke-width: 0px;"/>
</svg>