<?xml version="1.0" encoding="UTF-8"?>
<svg id="Layer_1" data-name="Layer 1" xmlns="http://www.w3.org/2000/svg" viewBox="0 0 384 360.07">
  <g style="opacity: .97;">
    <path d="m0,171.76c.67-3.27,1.27-6.56,2.02-9.81,8.7-38.07,41.01-64.72,79.9-65.92.85-.03,1.7-.13,2.52-.2C90.98,40.78,137.8,0,192,0c55.08,0,101.26,41.67,107.45,94.81,9.38,1.93,18.88,2.74,27.54,5.88,32.14,11.65,50.87,34.8,56.3,68.62.17,1.08.47,2.13.72,3.2v15c-1.48,6.41-2.46,12.99-4.51,19.21-11.17,33.87-42.89,56.95-78.57,57.25-19.99.17-39.99.06-59.99.03-7.58-.01-12.98-5.13-12.93-12.09.05-6.96,5.43-11.87,13.12-11.88,19.5-.02,38.99.05,58.49-.02,34.73-.14,61.54-28.09,60.33-62.79-1.07-30.74-27.28-56.56-58.05-57.16-4.25-.08-8.5-.01-12.75-.04-8.18-.06-12.99-4.81-13.17-13.02-.86-39.65-27.57-72.31-66.33-81.09-47.58-10.79-95.89,23.71-100.98,72.15-.34,3.23-.53,6.47-.66,9.71-.3,7.26-5.16,12.16-12.43,12.24-9.36.1-18.71-.35-27.91,2.25-27.18,7.69-45.61,33.86-43.56,62.1,2.04,28.13,23.89,51.51,51.7,54.96,6.04.75,12.21.65,18.32.68,16.12.09,32.24.02,48.37.03,7.99,0,13.44,4.85,13.49,11.91.04,7.09-5.41,12.07-13.32,12.07-19.37.02-38.74.07-58.11,0-43.13-.16-78.05-30.87-83.87-73.66-.13-.96-.45-1.89-.68-2.83,0-5.25,0-10.5,0-15.75Z" style="fill: #fff; stroke-width: 0px;"/>
    <path d="m180.01,318.84c0-2.27,0-3.64,0-5.01,0-48.23-.01-96.45.01-144.68,0-9.48,7.99-15.5,16.26-12.34,4.87,1.86,7.71,6.23,7.72,12.11.03,17.12.01,34.23.01,51.35,0,31.23,0,62.47,0,93.7v4.71c1.26-1.09,2.09-1.73,2.83-2.46,7.96-7.94,15.89-15.91,23.86-23.84,5.49-5.45,12.66-5.8,17.66-.93,5.09,4.96,4.82,12.31-.78,17.93-15.35,15.4-30.72,30.77-46.11,46.12-6.16,6.14-12.82,6.09-19-.08-15.56-15.54-31.13-31.06-46.63-46.66-5.04-5.07-5.1-12.3-.38-17.12,4.8-4.9,12.09-4.79,17.4.28.63.6,1.24,1.23,1.86,1.85,7.33,7.33,14.66,14.67,22,21.99.86.85,1.76,1.66,3.28,3.08Z" style="fill: #fff; stroke-width: 0px;"/>
  </g>
</svg>