<?xml version="1.0" encoding="UTF-8"?>
<svg id="Layer_1" data-name="Layer 1" xmlns="http://www.w3.org/2000/svg" viewBox="0 0 408.68 352.38">
  <path d="m408.68,182.66c-1.96,4-2.49,8.5-4.71,12.46-4.89,8.76-12.18,14.52-21.3,18.3-61.82,25.63-123.63,51.29-185.45,76.94-46.64,19.35-93.27,38.72-139.91,58.06-19.73,8.18-38.38,3.53-50-12.7-6.96-9.72-8.94-20.63-6.02-32.21,9.47-37.55,19.11-75.06,28.53-112.63.71-2.82,2.19-2.67,4.23-2.67,45.75.02,91.51.02,137.26,0,2.11,0,4.22.14,6.32-.54,5.77-1.86,9-6.65,8.45-12.8-.49-5.52-4.99-9.96-10.75-10.51-1.45-.14-2.92-.08-4.39-.08-45.49,0-90.98-.04-136.46.08-3.14,0-4.2-.92-4.94-3.87C20.41,124.25,11.14,88.02,1.88,51.78-3.3,31.54,4.01,13.65,21.6,4.43c11.31-5.92,22.87-5.64,34.59-.76,57.51,23.93,115.06,47.75,172.59,71.62,50.92,21.13,101.81,42.34,152.78,63.36,14.46,5.97,23.99,15.75,26.57,31.56.03.19.36.32.55.49v11.97Z" style="stroke-width: 0px;"/>
</svg>